<svg width="273" height="61" viewBox="0 0 273 61" fill="none" xmlns="http://www.w3.org/2000/svg">
<g clip-path="url(#clip0_19_26)">
<path d="M21.7499 42.4493L9.10038 12.1939L7.82633 31.2602C7.55332 35.3778 8.00834 40.6591 13.3776 40.6591H13.6506V41.7332H0V40.6591H0.273011C5.09621 40.6591 6.46127 35.1093 6.64328 31.9763L8.73636 0.736216H10.1014L24.116 35.1988L34.5814 0.736216H35.6735L40.0417 40.6591H44.1368V41.7332H30.4863V40.6591H34.8545L31.8513 13.3576L23.024 42.4493H21.7499Z" fill="#311B12"/>
<path d="M41.0015 1.45232H54.652V2.52648H50.6479L60.1123 33.8561L66.0275 12.1939C67.0286 8.43435 67.2106 2.52648 61.8413 2.52648H61.5683V1.45232H75.2189V2.52648H74.9459C70.6687 2.52648 68.6666 7.09165 67.6656 10.1351L58.8382 42.4493C57.0181 49.0733 52.2859 60.1729 43.8226 60.9786C40.0914 61.3366 38.8174 57.1295 40.0914 54.2651C45.1876 55.4288 51.7399 53.907 54.379 49.9685C55.9261 47.6411 57.7462 43.9711 56.1991 38.1527L44.6416 2.52648H41.0015V1.45232Z" fill="#311B12"/>
<path d="M75.1848 4.49577L84.1031 0.0201124L85.0132 0.736216V7.4497C86.3782 5.03285 90.3824 -0.875018 95.9336 0.109624C101.94 1.18378 106.581 7.89727 106.581 21.5928C106.581 34.3932 99.8468 43.1655 92.7485 43.1655C89.2904 43.1655 86.9243 41.7332 85.0132 39.0478V58.5617H89.2904V59.6359H75.6398V58.5617H79.735V3.42161L75.8218 5.3909L75.1848 4.49577ZM85.0132 22.0403C85.0132 36.81 88.0163 42.0018 92.7485 42.0018C98.9368 42.0018 100.939 30.8126 100.939 21.5928C100.939 15.0583 99.6648 5.12236 94.5686 3.51113C89.6544 1.9894 86.4692 7.18116 85.0132 9.59802V22.0403Z" fill="#311B12"/>
<path d="M123.406 1.45232V2.52648H119.129V18.9969H133.69V2.52648H129.594V1.45232H143.245V2.52648H138.968V40.6591H143.245V41.7332H129.594V40.6591H133.69V20.0711H119.129V40.6591H123.406V41.7332H109.756V40.6591H113.851V2.52648H109.756V1.45232H123.406Z" fill="#311B12"/>
<path d="M159.756 43.1655C152.567 43.1655 146.015 34.3932 146.015 21.5928C146.015 8.7924 152.567 0.0201124 159.756 0.0201124C166.855 0.0201124 173.589 8.7924 173.589 21.5928C173.589 34.3932 166.855 43.1655 159.756 43.1655ZM151.657 21.5928C151.657 30.8126 153.477 42.0018 159.756 42.0018C165.945 42.0018 167.947 30.8126 167.947 21.5928C167.947 12.3729 165.945 1.18378 159.756 1.18378C153.477 1.18378 151.657 12.3729 151.657 21.5928Z" fill="#311B12"/>
<path d="M175.342 4.49577L184.261 0.0201124L185.171 0.736216V7.4497C186.536 5.03285 190.54 -0.875018 196.091 0.109624C202.097 1.18378 206.739 7.89727 206.739 21.5928C206.739 34.3932 200.004 43.1655 192.906 43.1655C189.448 43.1655 187.082 41.7332 185.171 39.0478V58.5617H189.448V59.6359H175.797V58.5617H179.892V3.42161L175.979 5.3909L175.342 4.49577ZM185.171 22.0403C185.171 36.81 188.174 42.0018 192.906 42.0018C199.094 42.0018 201.096 30.8126 201.096 21.5928C201.096 15.0583 199.822 5.12236 194.726 3.51113C189.812 1.9894 186.627 7.18116 185.171 9.59802V22.0403Z" fill="#311B12"/>
<path d="M223.564 1.45232V2.52648H219.286V19.892H220.014C222.745 19.892 224.838 19.1759 226.294 11.7463C227.204 7.00214 228.387 0.288651 232.391 0.288651C234.666 0.288651 236.668 2.616 236.759 9.68753V13.4471H235.667V13.1785C235.667 9.59802 234.666 6.10701 231.936 6.10701C229.479 6.10701 227.932 10.5827 226.658 14.6108C225.748 17.7437 224.656 19.355 222.927 20.1606C228.478 21.3242 231.39 26.2475 232.664 31.8868C233.756 36.8995 233.392 39.764 235.303 39.764C236.941 39.764 237.669 36.3625 237.487 33.14H238.579C238.852 38.0632 237.396 43.0759 233.392 43.0759C228.66 43.0759 227.568 37.6156 227.022 32.5134C226.567 28.3063 226.931 20.9662 221.926 20.9662H219.286V40.6591H223.564V41.7332H209.913V40.6591H214.008V2.52648H209.913V1.45232H223.564Z" fill="#311B12"/>
<path d="M271.908 33.319V33.14H273V33.6771C273 39.6744 270.998 43.1655 267.722 43.1655C264.537 43.1655 261.898 40.2115 261.898 34.3932V28.6643C260.077 37.3471 255.8 44.2396 249.248 42.9864C244.516 42.0913 240.967 35.8254 244.607 29.5595C246.7 25.9789 250.704 23.025 254.617 20.3396C257.529 18.2808 262.262 15.9535 261.807 8.0763C261.534 3.69015 260.715 1.54184 258.53 1.2733C253.98 0.646704 250.613 8.7924 249.794 15.0583C247.61 15.0583 243.697 13.3576 244.334 10.0456C245.153 5.74895 251.25 -0.0693996 258.621 0.199139C264.264 0.378166 267.085 3.77967 267.176 11.9254V33.498C267.176 38.0632 268.177 39.764 269.633 39.764C270.816 39.764 271.908 38.2422 271.908 33.319ZM250.34 26.6055C246.882 31.2602 248.247 37.2576 252.888 38.0632C258.348 39.0478 261.898 30.4546 261.898 18.1018V14.3422C259.804 19.713 254.526 21.1452 250.34 26.6055Z" fill="#311B12"/>
</g>
<defs>
<clipPath id="clip0_19_26">
<rect width="273" height="61" fill="white"/>
</clipPath>
</defs>
</svg>
